<?xml version="1.0" encoding="UTF-8" standalone="yes"?><svg xmlns="http://www.w3.org/2000/svg" xmlns:xlink="http://www.w3.org/1999/xlink" height="462px" style="width:270px;height:462px;" version="1.1" viewBox="0 0 270 462" width="270px"><defs><filter height="300%" id="f1" width="300%" x="-1" y="-1"><feGaussianBlur result="blurOut" stdDeviation="2.0"/><feColorMatrix in="blurOut" result="blurOut2" type="matrix" values="0 0 0 0 0 0 0 0 0 0 0 0 0 0 0 0 0 0 .4 0"/><feOffset dx="4.0" dy="4.0" in="blurOut2" result="blurOut3"/><feBlend in="SourceGraphic" in2="blurOut3" mode="normal"/></filter></defs><g><rect fill="#FFFFFF" filter="url(#f1)" height="445.0273" style="stroke: #000000; stroke-width: 2.0;" width="253" x="10" y="10.5762"/><path d="M148,11.5762 L148,21.3223 L138,31.3223 L10,31.3223 " fill="#FFFFFF" style="stroke: #000000; stroke-width: 2.0;"/><text fill="#000000" font-family="Serif" font-size="14" lengthAdjust="spacingAndGlyphs" textLength="128" x="13" y="26.2461">Hanoi(k, start, p, goal)</text><ellipse cx="169.75" cy="58.3223" fill="#000000" filter="url(#f1)" rx="10" ry="10" style="stroke: none; stroke-width: 1.0;"/><polygon fill="#FEFECE" filter="url(#f1)" points="152.25,103.3223,187.25,103.3223,199.25,115.3223,187.25,127.3223,152.25,127.3223,140.25,115.3223,152.25,103.3223" style="stroke: #A80036; stroke-width: 1.5;"/><text fill="#000000" font-family="sans-serif" font-size="11" lengthAdjust="spacingAndGlyphs" textLength="35" x="152.25" y="119.8232">k &gt;=1 ?</text><text fill="#000000" font-family="sans-serif" font-size="11" lengthAdjust="spacingAndGlyphs" textLength="20" x="120.25" y="112.9053">Yes</text><text fill="#000000" font-family="sans-serif" font-size="11" lengthAdjust="spacingAndGlyphs" textLength="13" x="199.25" y="112.9053">No</text><rect fill="#FEFECE" filter="url(#f1)" height="35.0938" style="stroke: #A80036; stroke-width: 1.5;" width="151" x="26" y="148.9223"/><line style="stroke: #A80036; stroke-width: 1.5;" x1="31" x2="31" y1="148.9223" y2="184.016"/><line style="stroke: #A80036; stroke-width: 1.5;" x1="172" x2="172" y1="148.9223" y2="184.016"/><text fill="#000000" font-family="sans-serif" font-size="12" lengthAdjust="spacingAndGlyphs" textLength="131" x="36" y="171.3793">Hanoi(k-1, start, goal, p)</text><polygon fill="#FEFECE" filter="url(#f1)" points="20,219.016,173,219.016,183,254.1098,30,254.1098" style="stroke: #A80036; stroke-width: 1.5;"/><text fill="#000000" font-family="sans-serif" font-size="12" lengthAdjust="spacingAndGlyphs" textLength="143" x="30" y="241.473">k段目をstart -&gt; goalへ移動</text><rect fill="#FEFECE" filter="url(#f1)" height="35.0938" style="stroke: #A80036; stroke-width: 1.5;" width="151" x="26" y="289.1098"/><line style="stroke: #A80036; stroke-width: 1.5;" x1="31" x2="31" y1="289.1098" y2="324.2035"/><line style="stroke: #A80036; stroke-width: 1.5;" x1="172" x2="172" y1="289.1098" y2="324.2035"/><text fill="#000000" font-family="sans-serif" font-size="12" lengthAdjust="spacingAndGlyphs" textLength="131" x="36" y="311.5668">Hanoi(k-1, p, start, goal)</text><ellipse cx="238" cy="158.9223" fill="none" filter="url(#f1)" rx="10" ry="10" style="stroke: #000000; stroke-width: 1.0;"/><ellipse cx="238.5" cy="159.4223" fill="#000000" filter="url(#f1)" rx="6" ry="6" style="stroke: none; stroke-width: 1.0;"/><ellipse cx="169.75" cy="425.6035" fill="none" filter="url(#f1)" rx="10" ry="10" style="stroke: #000000; stroke-width: 1.0;"/><ellipse cx="170.25" cy="426.1035" fill="#000000" filter="url(#f1)" rx="6" ry="6" style="stroke: none; stroke-width: 1.0;"/><line style="stroke: #A80036; stroke-width: 1.5;" x1="101.5" x2="101.5" y1="184.016" y2="219.016"/><polygon fill="#A80036" points="97.5,209.016,101.5,219.016,105.5,209.016,101.5,213.016" style="stroke: #A80036; stroke-width: 1.0;"/><line style="stroke: #A80036; stroke-width: 1.5;" x1="101.5" x2="101.5" y1="254.1098" y2="289.1098"/><polygon fill="#A80036" points="97.5,279.1098,101.5,289.1098,105.5,279.1098,101.5,283.1098" style="stroke: #A80036; stroke-width: 1.0;"/><line style="stroke: #A80036; stroke-width: 1.5;" x1="140.25" x2="101.5" y1="115.3223" y2="115.3223"/><line style="stroke: #A80036; stroke-width: 1.5;" x1="101.5" x2="101.5" y1="115.3223" y2="148.9223"/><polygon fill="#A80036" points="97.5,138.9223,101.5,148.9223,105.5,138.9223,101.5,142.9223" style="stroke: #A80036; stroke-width: 1.0;"/><line style="stroke: #A80036; stroke-width: 1.5;" x1="199.25" x2="238" y1="115.3223" y2="115.3223"/><line style="stroke: #A80036; stroke-width: 1.5;" x1="238" x2="238" y1="115.3223" y2="148.9223"/><polygon fill="#A80036" points="234,138.9223,238,148.9223,242,138.9223,238,142.9223" style="stroke: #A80036; stroke-width: 1.0;"/><line style="stroke: #A80036; stroke-width: 1.5;" x1="101.5" x2="101.5" y1="324.2035" y2="368.6035"/><line style="stroke: #A80036; stroke-width: 1.5;" x1="101.5" x2="169.75" y1="368.6035" y2="368.6035"/><line style="stroke: #A80036; stroke-width: 1.5;" x1="169.75" x2="169.75" y1="368.6035" y2="415.6035"/><polygon fill="#A80036" points="165.75,405.6035,169.75,415.6035,173.75,405.6035,169.75,409.6035" style="stroke: #A80036; stroke-width: 1.0;"/><line style="stroke: #A80036; stroke-width: 1.5;" x1="169.75" x2="169.75" y1="68.3223" y2="103.3223"/><polygon fill="#A80036" points="165.75,93.3223,169.75,103.3223,173.75,93.3223,169.75,97.3223" style="stroke: #A80036; stroke-width: 1.0;"/></g></svg>